<svg width="108" height="45" viewBox="0 0 108 45" fill="black" xmlns="http://www.w3.org/2000/svg">
<path d="M18.072 33.884L4.176 24.884V21.212L18.072 12.212V17L8.532 22.976V23.12L18.072 29.096V33.884ZM24.2499 40.76L36.0939 9.44H40.5219L28.6779 40.76H24.2499ZM89.8718 33.884V29.096L99.4118 23.12V22.976L89.8718 17V12.212L103.768 21.212V24.884L89.8718 33.884Z" fill="black"/>
<path d="M50.1919 42.056C49.0879 42.056 48.0799 41.936 47.1679 41.696C46.2799 41.48 45.4519 41.192 44.6839 40.832L46.2319 37.052C46.9519 37.364 47.5999 37.58 48.1759 37.7C48.7759 37.844 49.3399 37.916 49.8679 37.916C50.7319 37.916 51.4039 37.772 51.8839 37.484C52.3639 37.22 52.6999 36.812 52.8919 36.26C53.0839 35.708 53.1799 35 53.1799 34.136V21.284H45.9799V17.144H58.4719V33.92C58.4719 35.024 58.3399 36.056 58.0759 37.016C57.8119 38 57.3679 38.864 56.7439 39.608C56.1199 40.376 55.2679 40.976 54.1879 41.408C53.1319 41.84 51.7999 42.056 50.1919 42.056ZM55.5919 14.336C54.5839 14.336 53.7439 14.048 53.0719 13.472C52.3999 12.872 52.0639 12.092 52.0639 11.132C52.0639 10.148 52.3999 9.356 53.0719 8.756C53.7439 8.132 54.5839 7.82 55.5919 7.82C56.6239 7.82 57.4639 8.132 58.1119 8.756C58.7839 9.356 59.1199 10.148 59.1199 11.132C59.1199 12.092 58.7839 12.872 58.1119 13.472C57.4639 14.048 56.6239 14.336 55.5919 14.336ZM74.7298 42.596C73.1698 42.596 71.7778 42.428 70.5538 42.092C69.3538 41.78 68.3938 41.288 67.6738 40.616C66.9778 39.944 66.6298 39.08 66.6298 38.024C66.6298 37.304 66.8578 36.644 67.3138 36.044C67.7938 35.444 68.4898 34.916 69.4018 34.46V34.316C68.8978 33.98 68.4658 33.572 68.1058 33.092C67.7698 32.612 67.6018 32 67.6018 31.256C67.6018 30.656 67.7938 30.056 68.1778 29.456C68.5858 28.856 69.1018 28.34 69.7258 27.908V27.764C69.0778 27.332 68.5258 26.72 68.0698 25.928C67.6138 25.136 67.3858 24.224 67.3858 23.192C67.3858 21.752 67.7338 20.552 68.4298 19.592C69.1498 18.632 70.0858 17.912 71.2378 17.432C72.4138 16.952 73.6738 16.712 75.0178 16.712C76.1218 16.712 77.1058 16.856 77.9698 17.144H85.2058V21.032H81.6058C81.8218 21.296 82.0018 21.644 82.1458 22.076C82.3138 22.484 82.3978 22.916 82.3978 23.372C82.3978 24.74 82.0618 25.868 81.3898 26.756C80.7418 27.62 79.8658 28.268 78.7618 28.7C77.6578 29.132 76.4098 29.348 75.0178 29.348C74.6818 29.348 74.2978 29.324 73.8658 29.276C73.4338 29.204 73.0018 29.108 72.5698 28.988C72.2818 29.18 72.0778 29.372 71.9578 29.564C71.8378 29.756 71.7778 30.008 71.7778 30.32C71.7778 30.776 72.0178 31.112 72.4978 31.328C73.0018 31.544 73.7698 31.652 74.8018 31.652H78.1138C80.4658 31.652 82.2538 32 83.4778 32.696C84.7258 33.392 85.3498 34.544 85.3498 36.152C85.3498 37.4 84.9178 38.504 84.0538 39.464C83.1898 40.448 81.9538 41.216 80.3458 41.768C78.7618 42.32 76.8898 42.596 74.7298 42.596ZM75.0178 26.144C75.5218 26.144 75.9778 26.036 76.3858 25.82C76.7938 25.604 77.1178 25.28 77.3578 24.848C77.5978 24.392 77.7178 23.84 77.7178 23.192C77.7178 22.568 77.5978 22.04 77.3578 21.608C77.1178 21.176 76.7938 20.852 76.3858 20.636C75.9778 20.396 75.5218 20.276 75.0178 20.276C74.5378 20.276 74.0938 20.396 73.6858 20.636C73.2778 20.852 72.9538 21.176 72.7138 21.608C72.4738 22.04 72.3538 22.568 72.3538 23.192C72.3538 23.84 72.4738 24.392 72.7138 24.848C72.9538 25.28 73.2778 25.604 73.6858 25.82C74.0938 26.036 74.5378 26.144 75.0178 26.144ZM75.4858 39.248C76.4458 39.248 77.2858 39.152 78.0058 38.96C78.7258 38.768 79.2898 38.504 79.6978 38.168C80.1058 37.856 80.3098 37.496 80.3098 37.088C80.3098 36.488 80.0458 36.104 79.5178 35.936C78.9898 35.792 78.2098 35.72 77.1778 35.72H74.9458C74.2978 35.72 73.7578 35.696 73.3258 35.648C72.9178 35.6 72.5458 35.54 72.2098 35.468C71.7538 35.756 71.4298 36.032 71.2378 36.296C71.0458 36.584 70.9498 36.896 70.9498 37.232C70.9498 37.88 71.3578 38.372 72.1738 38.708C72.9898 39.068 74.0938 39.248 75.4858 39.248Z" fill="#F06817"/>
</svg>
